PathFileType	4	(X/Y/Z)	C:\Users\Basilio\Documents\Thesis Gigler\squatting_fais\c3dfiles\039\SLS_pre_front1\markers_experimental.trc
DataRate	CameraRate	NumFrames	NumMarkers	Units	OrigDataRate	OrigDataStartFrame	OrigNumFrames
200.000000	200.000000	4	63	mm	200.000000	878	1405
Frame#	Time	FHD			RBHD			C7			T10			LSHO			LUUPA			LMUPA			LDUPA			LLEP			LMEP			LRAD			LUL			LRFIN			RSHO			RUPA1			RMUPA			RDUPA			RLEP			RMEP			RRAD			RUL			RUFIN			LASI			RASI			USACR			LSACR			RSACR			LTHI1			LTHI2			LTHI3			LTHI4			LLFC			LMFC			LTIB1			LTIB2			LTIB3			LTIB4			LLMAL			LMMAL			LHEE			LMT1			LMT2			LMT5			RTHI			RTHI2			RTHI3			RTHI4			RLFC			RMFC			RTIB1			RTIB2			RTIB3			RTIB4			RLMAL			RMMAL			RHEE			RMT1			RMT2			RMT5			LBHD			CLAV			*61			*62			
		X1	Y1	Z1	X2	Y2	Z2	X3	Y3	Z3	X4	Y4	Z4	X5	Y5	Z5	X6	Y6	Z6	X7	Y7	Z7	X8	Y8	Z8	X9	Y9	Z9	X10	Y10	Z10	X11	Y11	Z11	X12	Y12	Z12	X13	Y13	Z13	X14	Y14	Z14	X15	Y15	Z15	X16	Y16	Z16	X17	Y17	Z17	X18	Y18	Z18	X19	Y19	Z19	X20	Y20	Z20	X21	Y21	Z21	X22	Y22	Z22	X23	Y23	Z23	X24	Y24	Z24	X25	Y25	Z25	X26	Y26	Z26	X27	Y27	Z27	X28	Y28	Z28	X29	Y29	Z29	X30	Y30	Z30	X31	Y31	Z31	X32	Y32	Z32	X33	Y33	Z33	X34	Y34	Z34	X35	Y35	Z35	X36	Y36	Z36	X37	Y37	Z37	X38	Y38	Z38	X39	Y39	Z39	X40	Y40	Z40	X41	Y41	Z41	X42	Y42	Z42	X43	Y43	Z43	X44	Y44	Z44	X45	Y45	Z45	X46	Y46	Z46	X47	Y47	Z47	X48	Y48	Z48	X49	Y49	Z49	X50	Y50	Z50	X51	Y51	Z51	X52	Y52	Z52	X53	Y53	Z53	X54	Y54	Z54	X55	Y55	Z55	X56	Y56	Z56	X57	Y57	Z57	X58	Y58	Z58	X59	Y59	Z59	X60	Y60	Z60	X61	Y61	Z61	X62	Y62	Z62	X63	Y63	Z63	

879	4.39	-286.0673828125001	1685.658935546875	-618.3787841796876	-415.8812561035157	1658.719970703125	-596.1428222656251	-485.8906555175782	1500.133422851563	-680.6790771484376	-561.5659790039064	1208.825927734375	-725.7728881835939	-408.1058959960939	1512.748168945313	-843.145690917969	-251.8755187988282	1487.399291992188	-964.1309204101565	-227.4617004394532	1516.982788085938	-932.1003417968752	-182.9387817382813	1498.7001953125	-967.7761840820315	-116.3396148681641	1508.5830078125	-966.149353027344	-107.7406768798828	1435.92822265625	-939.8413085937502	165.9332275390625	1542.020263671875	-894.9550781250002	162.0514373779297	1554.488159179688	-970.2573852539065	244.9550018310547	1578.132690429688	-889.3555908203127	-369.5081176757813	1494.7607421875	-528.4190063476564	-210.1322021484376	1429.112426757813	-430.1806030273439	-183.7048797607422	1464.652954101563	-455.4711914062501	-141.4477081298828	1428.145629882813	-432.4101562500001	-78.71875000000001	1443.685546875	-442.5352172851564	-71.46006011962892	1377.981323242188	-483.7506103515626	206.6394195556641	1498.38525390625	-525.4885864257814	208.6624908447266	1488.908569335938	-448.5889282226564	293.3576660156251	1532.573120117188	-519.0285644531251	-423.6479492187501	1037.5634765625	-857.8421630859377	-423.5419006347657	1014.760925292969	-632.7511596679689	-602.3179931640626	1065.189697265625	-740.2373046875001	-606.3563232421876	1035.430297851563	-770.9649047851565	-608.8402709960939	1031.2998046875	-712.5085449218751	-305.9445800781251	833.1392822265627	-941.8587036132815	-223.1683349609376	813.4617919921877	-935.376403808594	-198.2952423095704	850.2775878906252	-919.2941894531252	-199.0525207519532	756.8265991210939	-928.803894042969	-103.1262512207032	682.9738159179689	-927.5836181640627	-67.94388580322267	677.1978759765626	-812.9528808593752	46.01100540161134	622.1223754882814	-904.6911621093752	31.08442115783692	550.0890502929689	-952.3375244140627	64.53173065185548	575.4750366210939	-934.5839843750002	121.3942031860352	518.2226562500001	-899.6291503906252	201.3435211181641	364.2723999023438	-942.595886230469	216.3542938232422	366.1195983886719	-857.1394653320315	188.071044921875	275.2805480957032	-907.4919433593752	369.5273742675782	420.4155578613282	-882.8457031250002	362.3645019531251	424.454071044922	-923.636413574219	339.5794067382813	385.6824951171876	-980.1387329101565	-364.3497924804688	751.8491821289064	-575.1857299804689	-303.9157409667969	722.5138549804689	-570.4005126953126	-276.1472473144532	740.0193481445314	-574.1942138671876	-289.9869995117188	638.8439941406251	-584.6091308593751	-265.1559753417969	514.5749511718751	-616.2830200195314	-227.1449127197266	523.2564697265626	-726.1005249023439	-258.8514099121094	312.0683593750001	-665.8069458007814	-354.7383117675782	264.0646667480469	-668.8621215820314	-311.3458251953126	246.6951446533204	-671.8908081054689	-301.5728759765626	202.0597381591797	-711.1312866210939	-384.7128295898439	120.5802688598633	-705.3530273437501	-350.3289184570313	146.306884765625	-785.659851074219	-454.4236450195314	107.7257614135742	-766.3089599609376	-231.3712615966797	59.2469825744629	-775.4749145507815	-236.1148223876954	57.46014404296876	-729.4560546875001	-292.5894165039063	37.54231262207032	-680.2247314453126	-446.2585754394532	1655.7119140625	-734.7078857421876	nan	nan	nan	nan	nan	nan	nan	nan	nan	
880	4.395	-286.3073120117188	1687.164672851563	-618.8421020507814	-416.1039123535157	1660.91162109375	-596.2635498046876	-486.267547607422	1501.537475585938	-680.5864868164064	-561.2517089843751	1210.12255859375	-725.5266113281251	-408.631561279297	1514.1455078125	-843.0466308593752	-252.3477020263672	1488.902709960938	-964.104431152344	-227.656478881836	1518.607421875	-932.095886230469	-183.5122833251953	1500.35888671875	-967.7119140625002	-116.6596603393555	1510.195556640625	-966.2796020507815	-108.1058197021485	1437.897705078125	-939.4750976562502	165.3092956542969	1544.075317382813	-894.9357910156252	161.4073333740235	1556.510009765625	-970.2120361328127	244.3608093261719	1580.166015625	-889.2974243164065	-369.7023925781251	1496.25732421875	-528.1823730468751	-210.2317504882813	1431.204833984375	-430.0005493164064	-183.9852294921875	1465.985595703125	-455.5504150390626	-141.6093902587891	1429.960815429688	-432.2689208984376	-79.03967285156251	1445.611206054688	-442.3741149902345	-71.99282836914064	1379.658935546875	-484.0457763671876	206.8169403076172	1500.401123046875	-525.3020019531251	208.4154205322266	1490.861328125	-448.6780395507814	293.0948791503907	1534.455688476563	-518.9735717773439	-423.2885131835939	1039.224731445313	-857.888122558594	-422.7142639160157	1015.961364746094	-632.6873779296876	-601.7436523437501	1066.416748046875	-739.9606933593751	-605.7131958007814	1036.798095703125	-770.6645507812502	-607.8737182617189	1032.561889648438	-712.2110595703126	-305.5527038574219	834.4169921875002	-941.817810058594	-222.7473297119141	814.6459960937502	-935.3477172851565	-197.8155670166016	851.5401611328127	-919.317565917969	-198.9205169677735	757.7864379882814	-928.873229980469	-102.7317733764649	683.7857666015626	-927.4512939453127	-67.86661529541017	677.9910888671876	-813.1594238281252	46.05450057983399	622.8723754882814	-904.902526855469	30.85896873474122	550.7561035156251	-952.0131835937502	64.3909149169922	576.0378417968751	-934.6566162109377	121.2941360473633	518.7231445312501	-899.8111572265627	201.0171661376954	364.6043395996094	-942.711608886719	216.1211700439454	366.4454650878907	-857.3446044921877	187.4848327636719	275.7196044921876	-907.6446533203127	369.2909851074219	420.5189208984376	-882.9429931640627	362.1564636230469	424.5899047851564	-923.6978149414065	339.1508789062501	385.7360839843751	-980.1962890625002	-364.2138977050782	752.6975708007814	-575.5954589843751	-303.7936096191407	723.3341674804689	-570.9706420898439	-276.0960998535157	740.5681152343751	-574.6124267578126	-290.2023010253907	639.7849121093751	-585.3232421875001	-265.7731323242188	515.0454711914064	-617.0073852539064	-227.8096618652344	523.5961914062501	-726.8082885742189	-259.1563110351563	312.3656616210938	-666.3204345703126	-355.0058593750001	264.2057800292969	-669.3241577148439	-311.5658874511719	246.9738006591797	-672.1687622070314	-301.6635131835938	202.3082733154297	-711.5276489257814	-384.6974182128907	120.6526489257813	-705.5466918945314	-350.3696594238282	146.232650756836	-785.8889160156252	-454.4346618652345	107.7257156372071	-766.3753662109376	-231.3494262695313	59.14349746704103	-775.5791625976565	-236.1007080078126	57.384090423584	-729.5718994140626	-292.9850158691407	37.09270858764649	-680.4699096679689	-446.5689392089845	1657.555786132813	-734.7936401367189	nan	nan	nan	nan	nan	nan	nan	nan	nan	
881	4.4	-286.4706115722657	1688.59033203125	-618.7689208984376	-416.2885742187501	1662.580810546875	-596.4812622070314	-486.9105224609376	1503.290893554688	-680.6076049804689	-561.0206298828126	1211.44482421875	-725.4050292968751	-409.4244384765626	1515.913452148438	-843.4211425781252	-252.6722106933594	1490.4794921875	-964.1116333007815	-228.3761901855469	1520.067016601563	-932.1291503906252	-183.9680328369141	1502.0234375	-967.688171386719	-117.098014831543	1511.71240234375	-966.2147216796877	-108.5568008422852	1439.677734375	-939.2881469726565	164.8753356933594	1546.109985351563	-894.8764648437502	160.9382476806641	1558.693481445313	-970.1558227539065	243.8446502685547	1582.33935546875	-889.2313232421877	-369.9882812500001	1498.14501953125	-528.3070678710939	-210.6730041503907	1432.825317382813	-430.0346984863282	-184.4459075927735	1467.99560546875	-455.400604248047	-141.8487243652344	1431.688232421875	-432.229705810547	-79.31600189208986	1447.309692382813	-442.2512207031251	-71.99928283691408	1381.371215820313	-483.6130371093751	206.5087585449219	1502.26513671875	-525.2578735351564	208.0288696289063	1492.772827148438	-448.4192504882814	292.8905944824219	1536.073852539063	-518.9854736328126	-422.6284484863282	1040.5458984375	-857.712097167969	-421.8346252441407	1017.256286621094	-633.0128784179689	-601.1240234375001	1067.562377929688	-739.8214111328126	-605.1427001953126	1038.07080078125	-770.5383300781252	-606.9450073242189	1033.708740234375	-712.0420532226564	-304.6751098632813	835.9561767578127	-941.7930908203127	-222.5860443115235	815.6661376953127	-935.3356933593752	-197.4422760009766	852.4675292968752	-919.4345703125002	-198.730209350586	758.8904418945314	-928.9923095703127	-102.5415725708008	684.6503906250001	-927.6011962890627	-67.83320617675783	678.6842651367189	-813.2288818359377	46.07529067993165	623.6112060546876	-905.2371215820315	30.87298774719239	551.3265380859376	-952.6033325195315	64.0902557373047	576.5103149414064	-934.7498168945315	121.0501403808594	519.2164306640626	-899.987487792969	200.6612396240235	364.8605651855469	-942.904724121094	215.6948852539063	366.7469787597657	-857.477966308594	186.822509765625	276.1848754882813	-908.0255126953127	368.9813232421876	420.583709716797	-882.9992675781252	361.9859008789063	424.5865783691407	-923.6876220703127	338.9828796386719	385.915008544922	-980.186950683594	-364.0316162109376	753.6870117187501	-576.0097656250001	-303.9216613769532	723.6790771484376	-571.7279052734376	-276.1083374023438	741.1149291992189	-575.1503295898439	-290.5324401855469	640.4201660156251	-585.9559936523439	-266.4035949707032	515.6414184570314	-617.7344970703126	-228.8028106689454	524.0289306640626	-727.7178955078126	-259.4400939941407	312.5572204589844	-666.9244995117189	-355.1426086425782	264.2489318847657	-669.7466430664064	-311.8181152343751	247.1768951416016	-672.5092773437501	-301.7702636718751	202.5950775146485	-711.8696289062501	-384.6973876953126	120.751823425293	-705.7098388671876	-350.4273071289063	146.1497192382813	-786.1979980468752	-454.4573364257814	107.700424194336	-766.4553222656251	-231.3769683837891	59.00276565551759	-775.7073974609377	-236.0687866210938	57.22215652465822	-729.7423706054689	-292.5554199218751	37.66701126098634	-680.2303466796876	-447.0692443847657	1659.34716796875	-734.7685546875001	nan	nan	nan	nan	nan	nan	nan	nan	nan	
882	4.405	-286.6779174804688	1690.32763671875	-619.2312011718751	-416.5574340820314	1664.343872070313	-596.5142211914064	-487.2503662109376	1504.763427734375	-680.5601196289064	-560.7368774414064	1212.74072265625	-725.1552124023439	-409.4204406738282	1517.290893554688	-843.1119384765627	-253.2560577392579	1491.980590820313	-964.0528564453127	-228.8597564697266	1521.6669921875	-932.0509033203127	-184.3863525390625	1503.8310546875	-967.5437011718752	-117.441635131836	1513.513671875	-966.3277587890627	-108.7027587890625	1440.799682617188	-939.599304199219	164.4909820556641	1548.172973632813	-894.9424438476565	160.4739532470703	1560.482177734375	-970.129821777344	243.2890014648438	1584.581909179688	-889.2287597656252	-370.0076293945313	1499.713623046875	-528.2357788085939	-211.2599182128907	1434.385864257813	-430.2795410156251	-184.4568023681641	1470.216918945313	-455.2532958984376	-142.173583984375	1433.492065429688	-432.0794372558595	-79.42759704589845	1449.090209960938	-442.262664794922	-72.26352691650392	1383.331909179688	-483.507781982422	206.3188781738282	1504.034301757813	-525.2230834960939	207.6108093261719	1494.498046875	-448.4395751953126	292.6352233886719	1538.133666992188	-518.9559326171876	-422.061004638672	1042.130859375	-857.7964477539065	-421.2149658203126	1018.539794921875	-632.6895751953126	-600.6903076171876	1069.2568359375	-739.5639038085939	-604.6683349609376	1039.48681640625	-770.413269042969	-606.3496704101564	1035.075927734375	-711.8849487304689	-304.7575683593751	837.0322875976565	-941.848571777344	-222.2102050781251	816.5852050781252	-935.340759277344	-196.9855041503907	853.441345214844	-919.3631591796877	-198.2854919433594	760.0233764648439	-928.9689941406252	-102.5611801147461	685.5186767578126	-927.7647094726565	-67.73307037353517	679.2238159179689	-813.3284301757815	46.11597061157227	623.9315795898439	-905.2116699218752	30.86697387695313	551.8602905273439	-952.6560668945315	64.10172271728517	576.9809570312501	-934.9519653320315	120.9530258178711	519.7374877929689	-900.1414184570315	200.2402801513672	365.2025451660157	-943.1223754882815	215.1162567138672	367.1592712402344	-857.620300292969	186.1851806640625	276.4897766113282	-908.3122558593752	368.6069335937501	420.602752685547	-883.010681152344	361.7496032714844	424.8258666992189	-923.660827636719	338.7796325683594	385.9195556640626	-980.2219848632815	-363.8193054199219	754.6121826171876	-576.4002685546876	-303.4900512695313	724.7452392578126	-572.0795288085939	-275.9298400878907	741.6679687500001	-575.7592163085939	-290.7296142578126	640.8410034179689	-586.7696533203126	-267.1305847167969	516.0651245117189	-618.4895629882814	-229.6502532958985	524.4776000976564	-728.5152587890626	-259.7196044921876	312.8642883300782	-667.3786621093751	-355.2986450195313	264.3091430664063	-670.1189575195314	-312.0639953613282	247.1888275146485	-672.9343872070314	-301.9125671386719	202.7782745361329	-712.2792968750001	-384.6528320312501	120.7953872680664	-705.9887084960939	-350.5209045410157	146.1089630126953	-786.432556152344	-454.5508422851564	107.7170944213867	-766.5718383789064	-231.4315948486329	58.86159515380861	-775.7437744140627	-236.0739288330079	57.11080169677736	-729.8582153320314	-292.9349365234376	37.17125701904298	-680.4666137695314	-447.7297668457032	1661.146850585938	-734.5106811523439	nan	nan	nan	nan	nan	nan	nan	nan	nan	
